<svg width="1440" height="650" viewBox="0 0 1440 650" fill="none" xmlns="http://www.w3.org/2000/svg">
<g clip-path="url(#clip0_1367_68254)">
<path d="M480.64 6.10352e-05C483.73 25.3368 483.505 30.6341 488.055 38.3207C498.166 55.4411 534.116 44.5986 550.967 33.8801C553.214 32.4599 554.484 28.9434 557.708 32.1782C558.775 33.2489 557.775 35.458 557.079 36.6865C546.844 53.9533 538.767 72.6065 525.499 87.9122C509.557 106.317 490.515 103.872 495.941 140.479C499.941 167.45 504.468 174.585 522.78 189.056C547.091 208.273 543.654 206.999 572.841 212.725C581.222 214.359 613.655 213.379 605.982 230.228C595.725 252.77 588.411 268.493 562.089 282.074C525.139 301.065 534.498 341.933 524.555 366.876C515.455 389.699 511.535 400.113 521.859 412.984C533.633 427.648 549.552 435.639 568.347 437.307C577.739 438.129 584.412 432.257 590.816 426.577C612.161 407.484 626.867 408.206 645.359 399.459C666.895 389.259 658.84 368.341 642.19 320.496C620.609 258.642 658.345 271.558 675.096 256.095C685.634 246.38 663.862 232.686 650.47 227.411C628.26 218.71 624.317 216.275 626.777 201.488C632.147 169.186 636.394 131.417 638.303 123.72C645.887 92.8263 672.894 87.1458 699.924 97.7291C760.365 121.398 769.667 108.042 815.728 140.558C830.939 151.31 832.153 166.627 839.972 181.133C854.576 208.183 885.347 197.622 924.758 228.042C937.115 237.555 935.632 247.202 927.589 256.771C915.099 271.562 900.78 284.694 884.977 295.847C861.261 312.64 857.183 336.174 866.766 350.522C879.64 369.84 899.862 356.157 920.803 365.726C960.539 383.759 1010.79 411.282 1039.97 416.659C1055.69 419.544 1071.6 407.045 1072.04 390.533C1073.16 346.442 1087.87 344.413 1077.75 310.939C1072.07 292.195 1065.64 275.932 1072.35 246.008C1090.24 166.436 1074.6 202.547 1035.63 165.23C1011.28 141.877 998.343 141.065 938.8 142.869C923.072 143.342 908.535 137.042 893.268 134.889C868.945 131.508 852.509 131.992 839.871 115.142C817.503 85.3199 829.681 66.5653 805.572 6.10352e-05" stroke="#E9E9E9" stroke-linecap="round" stroke-linejoin="round"/>
<path d="M471.652 0.000101356C469.63 22.2825 473.506 46.7626 452.161 78.5688C448.15 84.531 445.622 91.7894 443.769 98.8562C442.207 104.796 445.633 109.665 450.857 112.9C465.552 122.006 472.888 121.398 479.494 143.951C489.987 179.758 485.617 172.511 514.938 200.936C549.383 234.331 576.873 228.234 571.11 247.777C564.875 269.068 550.012 267.445 534.037 294.619C522.196 314.726 524.431 331.17 508.737 360.643C500.798 375.094 498.752 392.07 503.03 408.003C505.85 419.195 513.332 426.645 521.758 433.272C546.159 452.432 568.796 466.171 593.658 445.264C618.238 424.605 622.597 425.112 649.268 418.113C673.006 411.891 699.497 408.149 688.588 383.173C674.073 350.06 678.208 372.612 665.108 314.286C662.378 302.114 667.052 294.923 676.343 291.17C689.891 285.681 707.158 271.277 709.012 257.357C713.214 225.799 643.909 219.679 643.752 192.449C643.583 163.889 643.426 119.628 670.714 107.693C683.51 102.057 692.172 105.382 757.309 124.779C773.891 129.716 787.17 140.637 801.123 150.195C812.235 157.733 820.945 168.326 826.209 180.705C841.263 216.354 874.966 205.23 900.727 227.366C914.489 239.189 916.062 247.202 906.265 262.407C898.974 273.677 889.032 282.333 878.179 290.122C850.97 309.688 847.554 339.285 855.576 355.582C868.507 381.854 897.795 377.752 913.523 381.111C953.023 389.552 960.628 401.984 1004.59 412.669C1020.32 416.501 1037.17 430.206 1065.36 422.148C1078.27 418.451 1086.16 410.415 1086.6 396.709C1087.07 381.753 1090.18 367.495 1094.37 353.193C1107.24 309.237 1048.89 273.869 1109.72 193.52C1129.17 167.845 1131.42 155.097 1158.66 151.761C1171.35 150.206 1182.57 149.169 1182.25 136.557C1181.53 110.431 1177.25 112.776 1188.85 80.6201C1197.11 57.7516 1193.18 25.0663 1191.29 -0.0111694" stroke="#E9E9E9" stroke-linecap="round" stroke-linejoin="round"/>
<path d="M1190.09 811.497C1185.96 782.08 1175.64 786.972 1154.7 777.008C1144.59 772.207 1140.95 760.102 1122.53 747.896C1108.71 738.733 1100.52 729.739 1083.93 698.023C1071.65 674.534 1082.09 658.214 1101.27 612.297C1113.44 583.162 1137.57 599.245 1164.87 582.508C1196.78 562.954 1193.36 546.385 1193.44 524.824C1193.53 498.518 1212.35 474.895 1241.23 477.577C1263.95 479.685 1257.82 481.68 1346.33 434.455C1360.08 427.129 1364.74 408.848 1342.96 393.88C1322.18 379.657 1293.69 381.235 1278.42 393.373C1253.26 413.356 1236.72 399.741 1201.26 411.147C1167.11 422.125 1147.94 407.935 1123.15 425.394C1109.24 435.199 1114.05 449.423 1124.27 457.031C1136.4 466.047 1140.36 468.087 1142.24 471.187C1150.56 485.196 1135.75 491.283 1118.21 512.415C1077.12 562.007 1079.79 561.049 1077.15 568.769C1072.73 581.764 1064.79 591.807 1052.93 598.671C1020.88 617.155 1015.58 620.964 988.299 598.671C967.111 581.325 955.068 583.545 936.621 575.475C906.659 562.379 918.556 552.584 874.775 514.613C859.205 501.088 858.295 495.453 839.331 485.861C809.257 470.691 791.607 455.768 772.633 488.251C764.184 503.013 758.642 519.268 756.309 536.129C750.636 574.641 788.349 550.781 846.622 654.044C867.821 691.576 900.435 677.082 906.659 711.627C910.692 733.999 908.692 734.574 905.636 766.335C905.12 771.689 914.736 778.135 922.488 779.488C942.654 783.027 953.719 771.598 977.604 783.861C1014.28 802.604 1025.08 797.938 1036.64 810.911" stroke="#E9E9E9" stroke-linecap="round" stroke-linejoin="round"/>
<path d="M261.963 0.56366C271.512 14.5056 277.388 19.059 275.703 32.1219C275.13 36.6302 267.592 41.4766 260.312 39.91C253.728 38.5011 227.856 42.367 206.308 44.5648C164.561 48.8365 153.428 81.1498 139.452 110.059C119.983 150.33 93.6722 137.414 75.4164 166.549C69.3948 176.163 62.6204 185.777 63.5304 198.107C64.3505 209.287 72.4393 222.97 88.2461 223.151C103.806 223.331 119.343 225.856 134.914 226.07C143.508 226.194 152.158 223.815 160.753 222.362C175.29 219.961 180.154 212.996 219.801 196.439C245.123 185.878 278.309 175.43 269.726 151.277C250.965 98.5181 302.182 77.0472 309.552 131.508C314.293 166.627 344.907 154.624 362.017 199.764C370.622 222.463 382.003 241.466 369.971 264.717C352.67 298.079 353.209 303.399 354.961 319.944C356.085 330.46 366.353 338.214 377.745 339.161C423.233 342.937 432.602 381.246 480.55 349.767C500.323 336.794 503.727 319.978 520.511 271.435C524.196 260.772 522.14 250.82 515.388 242.131C508.277 232.99 501.143 223.692 492.841 215.689C451.914 176.241 471.788 160.136 431.748 143.782C376.97 121.409 435.119 69.3944 445.769 -0.0336914" stroke="#E9E9E9" stroke-linecap="round" stroke-linejoin="round"/>
<path d="M1199.08 6.10352e-05C1202.13 28.3574 1200.2 4.14771 1203.57 60.9412C1205.19 88.1038 1190.09 97.7516 1203.46 128.149C1231.69 192.111 1188.32 163.088 1152.9 169.851C1135.93 173.063 1096.07 222.756 1093.18 260.152C1090.94 289.265 1106.98 324.971 1111.61 345.438C1113.72 354.782 1110.48 373.12 1111.46 379.781C1114.37 399.967 1135.74 382.846 1159.65 384.379C1177.5 385.506 1191.46 391.716 1224.2 377.853C1248.82 367.417 1261.63 367.36 1312.56 365.185C1336.51 364.159 1370.98 378.766 1384.2 418.282C1393.92 447.191 1367.81 455.408 1304.71 475.255C1268.57 486.628 1280.21 514.354 1275.81 524.745C1271.17 535.689 1260.08 537.527 1250.78 530.381C1241.91 523.618 1230.99 504.706 1220.01 524.362C1210.65 541.088 1215.94 563.81 1178.22 588.02C1141.52 611.609 1123.59 602.221 1112.4 626.938C1095.95 663.297 1085.89 672.201 1099.62 697.425C1127.17 748.031 1141.11 714.185 1156.83 739.826C1165.81 754.478 1159.07 759.527 1192.78 765.749C1196.88 766.504 1201.49 771.7 1201.34 776.456C1200.94 788.11 1201.21 799.775 1201.21 811.395" stroke="#E9E9E9" stroke-linecap="round" stroke-linejoin="round"/>
<path d="M228.799 6.10352e-05C227.373 32.9784 191.636 13.8406 166.392 42.3219C130.701 82.6037 137.183 112.201 114.018 127.383C94.0879 140.513 66.4738 139.78 49.1841 184.638C45.1734 195.052 51.8017 224.086 73.1246 240.913C87.7292 252.387 86.4036 238.208 135.464 235.03C179.705 232.167 180.615 226.216 202.399 215.622C246.089 194.365 254.481 194.872 293.397 178.146C329.426 162.649 355.883 199.155 363.69 230.251C369.128 251.947 359.601 262.294 342.345 288.363C320.562 321.285 335.515 360.97 315.506 371.587C302.856 378.293 314.091 375.261 256.908 408.577C231.203 423.556 214.127 429.034 220.902 454.292C229.889 487.687 217.396 474.681 202.927 565.456C200.68 579.95 203.174 587.997 188.861 589.868C158.068 593.971 148.912 601.274 116.882 601.139C40.646 600.812 36.1635 600.406 25.2774 612.883C18.5367 620.604 9.71775 623.185 -0.0449219 623.59" stroke="#E9E9E9" stroke-linecap="round" stroke-linejoin="round"/>
<path d="M450.285 811.497C458.351 730.719 480.618 743.523 492.122 692.477C495.413 677.825 492.122 666.949 480.168 657.887C469.462 649.772 459.677 640.418 449.072 632.156C443.904 628.132 443.454 622.745 444.904 618.011C448.544 605.918 447.937 593.52 449.285 581.268C451.363 562.356 457.913 525.805 459.16 508.448C460.609 488.16 445.398 484.069 430.085 471.728C402.247 449.288 419.885 420.412 389.642 412.455C333.549 397.712 320.652 387.896 292.88 402.841C255.133 423.128 238.09 424.943 236.248 445.264C234.944 459.578 243.123 473.103 232.237 492.669C220.654 513.486 207.959 554.264 222.564 572.86C230.9 583.489 239.416 586.216 303.631 611.688C325.224 620.254 341.705 617.008 360.387 618.563C376.048 619.86 397.461 639.369 396.405 661.956C395.933 672.19 397.337 682.469 393.102 692.466C385.654 710.049 373.037 721.409 354.737 726.143C350.535 727.27 251.066 716.394 250.201 811.497" stroke="#E9E9E9" stroke-linecap="round" stroke-linejoin="round"/>
<path d="M1177.72 811.497C1170.84 789.598 1142.31 801.173 1128.29 777.594C1113.69 753.058 1099.82 764.216 1088.15 735.374C1075.41 703.929 1056.69 687.462 1072.5 649.513C1078.7 634.613 1084.13 621.956 1081.34 612.917C1079.8 607.935 1071.56 605.715 1065.85 608.409C1016.83 631.435 1021.64 639.696 974.75 601.004C960.966 589.631 950.417 588.471 929.229 580.096C898.75 568.048 906.479 548.955 874.809 526.346C856.059 513.046 848.903 497.042 802.134 484.002C797.944 482.875 786.698 486.639 781.542 496.647C774.722 509.868 770.7 523.923 772.015 538.913C773.588 556.777 796 554.14 828.625 601.026C860.98 647.541 866.08 664.751 896.683 674.365C930.026 684.847 924.218 715.256 929.431 743.748C933.15 764.036 947.406 755.312 980.525 772.985C1004.29 785.676 1017.9 786.972 1035 783.951C1056.94 780.085 1057.31 792.968 1063.09 811.497" stroke="#E9E9E9" stroke-linecap="round" stroke-linejoin="round"/>
<path d="M459.283 6.10352e-05C454.79 60.017 388.866 115.233 445.263 135.351C458.744 140.152 466.844 150.003 470.99 163.122C479.584 190.33 497.514 199.189 533.992 239.324C547.417 254.111 534.149 270.217 528.487 283.877C507.445 334.596 508.479 339.724 494.155 355.548C482.55 368.363 477.067 373.717 480.123 390.488C482.853 405.512 481.247 417.064 469.372 426.554C451.622 440.891 441.174 444.824 449.802 453.086C462.71 465.405 470.619 462.102 476.169 487.022C482.179 513.982 463.092 531.7 462.586 574.495C462.362 593.768 470.046 609.615 483.01 633.689C486.864 640.835 499.48 653.65 504.749 660.885C516.938 677.656 495.234 718.096 484.067 735.351C462.238 769.085 461.53 773.593 461.53 811.508" stroke="#E9E9E9" stroke-linecap="round" stroke-linejoin="round"/>
<path d="M287.263 6.10352e-05C301.362 36.3934 293.397 35.0973 298.733 61.471C302.89 82.0402 316.607 92.6347 321.988 115.154C332.47 159.02 367.948 142.125 371.756 183.906C373.588 204.046 382.744 228.222 384.833 240.958C387.676 258.236 373.79 277.183 371.88 292.872C368.397 321.59 392.315 320.158 427.142 340.975C448.364 353.655 475.731 346.002 488.482 325.546C497.874 310.488 502.57 293.503 506.277 276.427C510.052 259.082 499.289 245.467 468.765 210.516C449.588 188.549 457.407 162.164 421.581 155.142C407.257 152.336 392.832 152.46 392.675 135.982C392.27 88.1827 424.457 64.8409 432.298 6.10352e-05" stroke="#E9E9E9" stroke-linecap="round" stroke-linejoin="round"/>
<path d="M1209.2 6.10352e-05C1214.82 50.3805 1218.01 65.9004 1213.14 86.9091C1204.43 124.576 1239.35 143.477 1229.22 180.524C1220.91 210.955 1179.6 165.421 1148.58 185.247C1126.72 199.234 1111.97 229.09 1105.28 253.999C1098.73 278.366 1108.97 303.985 1117.64 324.486C1130 353.632 1135.42 363.855 1158.08 366.256C1179.06 368.51 1189.9 368.194 1209.19 361.623C1253.95 346.374 1255.34 353.227 1278.94 352.607C1324.29 351.39 1339.69 331.429 1379.52 381.561C1429.99 445.05 1420.72 443.551 1437.47 457.143" stroke="#E9E9E9" stroke-linecap="round" stroke-linejoin="round"/>
<path d="M1226.06 6.10352e-05C1216.57 36.8105 1245.77 42.0401 1232.42 68.9322C1205.74 122.728 1252.54 130.55 1243.73 197.476C1243.04 202.784 1239.68 208.002 1236.63 212.68C1231.35 220.784 1221.28 219.69 1214.77 214.506C1201.95 204.362 1164.36 169.423 1135.54 211.046C1125.09 226.137 1119 243.212 1115.02 260.772C1110.96 278.738 1115.79 296.208 1123.37 312.55C1156.93 384.965 1193.81 336.219 1254.17 337.989C1331.58 340.243 1321.06 315.447 1354.16 335.284C1397.41 361.206 1378.82 392.438 1437.97 413.649" stroke="#E9E9E9" stroke-linecap="round" stroke-linejoin="round"/>
<path d="M230.484 810.933C247.853 758.141 250.998 747.817 278.792 732.5C305.889 717.589 335.739 713.993 348.445 710.443C371.296 704.086 383.362 686.121 372.655 657.47C360.713 625.484 331.751 638.085 283.263 615.115C261.898 604.922 239.169 597.898 215.79 594.264C205.038 592.596 203.679 593.734 200.533 604.407C180.435 672.562 215.722 695.442 221.362 703.23C227.912 712.246 226.047 721.996 216.936 729.152C193.579 747.569 168.19 723.303 123.511 741.336C107.052 747.986 89.9198 753.013 72.9558 758.389C49.8804 765.737 25.9512 726.617 0.561523 709.913" stroke="#E9E9E9" stroke-linecap="round" stroke-linejoin="round"/>
<path d="M820.188 811.497C812.728 804.013 820.862 809.096 772.947 775.43C731.998 746.622 709.147 746.487 674.085 735.858C654.032 729.795 651.335 719.403 630.271 668.73C620.474 645.162 621.396 631.795 605.488 617.391C554.765 571.474 576.526 590.894 549.316 573.334C496.346 539.172 509.322 511.761 488.572 532.759C482.213 539.183 480.404 547.614 478.517 555.909C474.495 573.469 479.775 589.631 486.314 605.568C490.302 615.272 490.65 624.728 510.625 646.075C520.938 657.109 523.477 669.068 519.073 683.483C500.963 742.643 461.935 760.316 470.507 802.525C471.091 805.422 470.597 808.533 470.597 811.542" stroke="#E9E9E9" stroke-linecap="round" stroke-linejoin="round"/>
<path d="M593.074 6.10352e-05C594.613 12.4994 602.488 30.0367 579.492 49.5915C546.811 77.329 543.103 96.5682 527.139 115.03C516.837 126.943 517.961 145.698 525.769 157.385C552.215 196.946 563.505 202.469 595.871 195.233C608.589 192.415 616.621 184.3 618.767 171.564C620.688 160.226 622.407 148.583 621.924 137.177C620.901 113.181 624.171 87.236 647.628 82.5135C694.374 73.1137 722.191 105.596 770.161 104.446C774.652 104.215 779.152 104.215 783.643 104.446C799.371 105.709 807.875 93.604 809.852 82.3445C817.076 41.3751 801.898 25.1677 788.709 6.10352e-05" stroke="#E9E9E9" stroke-linecap="round" stroke-linejoin="round"/>
<path d="M609.375 0.563601C610.768 6.70618 614.048 10.2114 610.936 40.0114C608.42 64.2436 585.985 58.1461 565.976 84.531C551.45 103.691 542.991 139.42 558.775 168.149C572.447 193.035 602.825 181.573 606.611 160.259C611.206 134.404 596.118 103.286 615.689 71.7386C625.328 56.1962 708.428 78.6476 725.145 85.8497C754.95 98.7322 797.247 98.4279 801.011 63.7589C804.46 31.4681 777.194 15.8806 775.172 6.10352e-05" stroke="#E9E9E9" stroke-linecap="round" stroke-linejoin="round"/>
<path d="M792.079 811.497C768.712 771.632 728.223 755.785 683.106 747.558C663.738 744.03 647.246 738.462 639.899 720.598C591.523 602.796 623.047 651.733 559.337 600.53C541.991 586.588 506.075 566.335 504.479 588.606C500.514 643.934 543.676 636.845 530.116 680.553C509.894 745.811 469.271 758.885 478.977 804.734C479.317 806.974 479.516 809.232 479.573 811.497" stroke="#E9E9E9" stroke-linecap="round" stroke-linejoin="round"/>
<path d="M1437.44 716.687C1420.04 702.959 1407.02 696.219 1415.55 672.731C1418.92 663.432 1435.98 638.287 1414.43 612.274C1406.57 602.762 1396.06 599.031 1384.55 597.791C1376.15 596.89 1368.09 599.82 1360.44 602.863C1322.24 618.011 1330.72 632.167 1291.84 646.278C1253.49 660.209 1236.19 654.427 1225.36 668.11C1216.14 679.764 1224.59 704.684 1227.1 719.561C1232.53 751.784 1259.86 730.077 1305.3 753.982C1330.01 767.011 1333.64 771.519 1355.85 768.927C1365.49 767.8 1374.42 769.107 1382.2 773.909C1399.53 784.605 1419.53 787.715 1437.97 795.177" stroke="#E9E9E9" stroke-linecap="round" stroke-linejoin="round"/>
<path d="M822.435 6.10352e-05C827.794 46.3568 827.872 57.5713 834.793 73.3391C854.633 118.219 882.584 121.804 898.829 126.312C923.623 133.277 936.452 137.436 969.055 129.693C996.5 123.122 1029.16 135.554 1052.9 150.612C1060.24 155.278 1068.28 157.78 1077.02 154.094C1086 150.296 1095.24 147.028 1103.98 142.666C1125.32 131.936 1113.93 86.154 1102.86 64.8973C1080.04 21.1779 1092.16 35.8299 1057.92 0.541059" stroke="#E9E9E9" stroke-linecap="round" stroke-linejoin="round"/>
<path d="M1437.44 738.135C1413.78 723.292 1388.89 718.795 1386.88 680C1386.36 669.609 1396.71 656.895 1399.68 648.386C1402.99 638.873 1394.16 631.322 1386.2 634.23C1370.25 640.091 1360.36 639.076 1348 642.367C1338.05 645.005 1362.61 638.738 1260.82 669.879C1250.78 672.956 1242.22 678.445 1240.78 689.626C1238.9 704.131 1243.89 719.944 1261.92 725.23C1323.32 743.207 1326.07 763.551 1363.09 750.973C1396.43 739.612 1390.64 776.23 1437.9 770.302" stroke="#E9E9E9" stroke-linecap="round" stroke-linejoin="round"/>
<path d="M777.419 811.497C762.949 777.222 723.965 763.449 687.544 757.814C658.885 753.385 641.37 750.804 630.248 727.383C604.117 672.269 606.274 673.689 604.409 664.199C599.432 639.617 581.3 636.98 555.461 629.823C546.721 627.411 546.474 635.672 547.058 645.016C549.125 681.082 520.814 725.23 497.626 760.203C486.246 777.38 488.021 778.8 488.639 803.032C488.706 805.681 489.684 808.296 490.245 810.922" stroke="#E9E9E9" stroke-linecap="round" stroke-linejoin="round"/>
<path d="M839.297 0.000282258C835.86 27.625 829.804 54.7651 855.599 85.2187C874.787 107.85 882.797 113.046 912.388 120.158C937.227 126.132 945.238 120.868 967.437 113.396C992.355 105.055 993.163 104.807 1022.49 117.904C1037.09 124.441 1051.81 130.617 1067.42 134.258C1085.58 138.473 1102.1 125.241 1102.34 106.577C1102.64 83.3816 1084.23 48.4309 1070.09 32.7983C1063.29 25.2919 1066.91 31.2542 1032.57 -0.0786133" stroke="#E9E9E9" stroke-linecap="round" stroke-linejoin="round"/>
<path d="M857.857 0.563599C853.363 12.2627 841.623 36.1906 852.105 59.8705C859.553 76.6414 879.842 101.37 902.244 107.862C941.957 119.358 947.866 97.2219 995.051 87.0444C1024.88 80.62 1016.4 104.345 1054.04 116.844C1060.63 119.031 1067.52 121.747 1074.26 120C1087.9 116.439 1091.99 107.456 1089.5 92.5445C1085.24 67.5121 1057.06 47.0443 1040.18 33.6208C1027.42 23.4771 1016 11.6653 1004.02 0.563599" stroke="#E9E9E9" stroke-linecap="round" stroke-linejoin="round"/>
<path d="M1438 576.174C1358.1 568.284 1362.54 564.993 1311.53 615.126C1264.86 661.009 1227.88 617.56 1198.07 661.494C1185.71 679.674 1213.99 703.782 1207.14 736.49C1205.9 742.441 1206.56 748.888 1207.03 755.053C1207.35 759.133 1211.81 763.066 1216.46 763.607C1259.28 768.645 1253.26 769.434 1260.27 810.945" stroke="#E9E9E9" stroke-linecap="round" stroke-linejoin="round"/>
<path d="M1233.38 0.563599C1258.67 45.0381 1230.71 50.2565 1262.04 61.5386C1276.64 66.7795 1291.71 71.7499 1301.79 84.2267C1321.83 109.022 1341.11 121.105 1353.47 187.918C1355.94 201.127 1350.7 235.109 1359.09 257.357C1367.48 279.606 1379.31 276.709 1409.44 304.537C1417.23 311.716 1427.66 314.399 1437.95 316.551" stroke="#E9E9E9" stroke-linecap="round" stroke-linejoin="round"/>
<path d="M174.829 6.10352e-05C151.428 39.5605 137.273 61.5048 127.454 89.6705C106.727 149.146 71.4731 106.408 35.4557 177.786C29.3105 189.969 33.9727 197.645 57.9244 251.113C67.8781 273.339 41.9604 286.053 16.8516 285.027C11.2344 284.802 5.61719 285.027 0 285.027" stroke="#E9E9E9" stroke-linecap="round" stroke-linejoin="round"/>
<path d="M154.035 0.563599C149.743 8.3179 117.557 90.7299 117.512 90.8652C100.66 134.483 74.5625 101.787 23.2215 166.053C1.57281 193.103 51.9927 231.423 43.6118 259.521C38.6125 276.303 18.6154 273.982 0 274.827" stroke="#E9E9E9" stroke-linecap="round" stroke-linejoin="round"/>
<path d="M1369.47 0.563599C1377.22 9.36609 1376.11 13.2094 1367.64 24.7169C1364.27 29.3379 1359.17 32.7304 1354.85 36.6752C1316.53 71.7274 1330.87 63.7251 1353.73 143.353C1365.22 183.455 1366.2 190.691 1366.64 199.775C1368.31 235.086 1362.98 252.748 1386.93 269.789C1419.93 293.289 1424.62 300.22 1438.11 304.165" stroke="#E9E9E9" stroke-linecap="round" stroke-linejoin="round"/>
<path d="M1417.78 0.563599C1388.43 55.2269 1393.06 33.8124 1366.1 58.7321C1356.38 67.7488 1358.75 79.6507 1358.88 90.8539C1358.88 90.9779 1360.91 127.732 1371.04 161.984C1377.55 183.996 1376.33 188.752 1377.87 232.505C1378.64 253.987 1388.56 257.662 1433.56 289.986C1434.98 290.754 1436.49 291.337 1438.06 291.722" stroke="#E9E9E9" stroke-linecap="round" stroke-linejoin="round"/>
<path d="M1.17151e-05 506.194C42.8592 504.605 57.2953 508.707 56.6325 474.038C56.1606 448.375 60.4971 451.497 48.8808 417.042C40.3314 391.637 65.1706 322.886 66.8558 312.629C68.1927 304.559 62.1935 297.662 53.3745 297.425C35.568 296.952 17.7728 296.647 -0.0336914 296.298" stroke="#E9E9E9" stroke-linecap="round" stroke-linejoin="round"/>
<path d="M1437.44 6.10352e-05C1422.35 20.8961 1381.83 85.8722 1378.46 113.993C1374.85 143.218 1387.44 155.368 1386.96 181.708C1385.63 253.548 1384.1 243.235 1438.06 279.335" stroke="#E9E9E9" stroke-linecap="round" stroke-linejoin="round"/>
<path d="M0.561523 65.4608C24.7154 97.6051 26.5129 100.197 30.4899 104.266C37.8372 111.795 67.0016 106.374 77.6743 102.857C102.39 94.6634 111.153 63.6123 108.344 38.3996C105.401 12.2964 80.4155 19.1603 57.2951 20.8622C36.3785 22.1875 16.462 30.3145 0.561523 44.0124" stroke="#E9E9E9" stroke-linecap="round" stroke-linejoin="round"/>
<path d="M894.953 0.563557C871.36 10.7073 853.599 37.7572 866.283 62.6431C881.112 91.7781 906.906 109.191 936.486 95.7905C950.832 89.2872 964.797 81.8936 978.671 74.376C988.423 69.1125 996.343 61.4033 1002.83 52.4205C1015.87 34.3872 994.411 14.9451 976.986 1.16091C976.2 0.541016 974.739 0.732619 973.616 0.541016" stroke="#E9E9E9" stroke-linecap="round" stroke-linejoin="round"/>
<path d="M624.552 6.10352e-05C631.372 56.9175 628.507 50.234 727.987 75.0072C737.862 77.4642 747.771 79.9663 757.781 81.7696C769.015 83.742 783.62 75.582 787.428 64.8635C793.978 46.7175 782.305 36.9232 769.004 19.7803C764.51 13.9758 763.589 7.03303 762.825 0.0338734" stroke="#E9E9E9" stroke-linecap="round" stroke-linejoin="round"/>
<path d="M301.879 6.10352e-05C312.641 60.4904 307.754 56.5231 339.581 108.887C347.974 122.694 363.297 124.587 374.24 112.167C390.451 93.773 396.427 77.2275 412.616 42.8854C419.244 28.8646 419.57 15.7003 421.053 0.056415" stroke="#E9E9E9" stroke-linecap="round" stroke-linejoin="round"/>
<path d="M1437.44 22.5416C1428.78 34.6126 1414.97 49.9522 1416.22 77.2726C1417.74 110.364 1390.38 116.405 1399.48 144.897C1408.58 173.39 1390.24 202.378 1397.45 230.781C1402.24 249.648 1415.92 255.374 1437.44 268.572" stroke="#E9E9E9" stroke-linecap="round" stroke-linejoin="round"/>
<path d="M1078.22 0.563601C1088.79 14.7197 1088.06 9.15194 1110.8 56.4667C1130.83 98.1686 1128.29 97.9883 1132.3 108.887C1134.04 113.621 1144 128.566 1153.46 113.914C1159.27 104.897 1163.73 94.9677 1169.43 85.8384C1174.13 78.3095 1179.7 71.3104 1182.19 62.6206C1187.9 42.7614 1182.19 11.1243 1182.19 6.10352e-05" stroke="#E9E9E9" stroke-linecap="round" stroke-linejoin="round"/>
<path d="M0 468.955C20.0646 470.702 29.0858 472.674 31.8607 452.049C34.3435 433.644 26.794 422.305 40.3651 379.228C62.3395 309.406 42.3648 310.127 0 306.43" stroke="#E9E9E9" stroke-linecap="round" stroke-linejoin="round"/>
<path d="M639.168 6.10352e-05C641.224 16.4667 638.865 33.5757 663.334 45.7257C687.802 57.8756 746.85 63.5673 759.444 62.4966C766.375 61.9218 769.218 54.4154 765.623 47.4163C758.174 32.8995 751.58 36.1229 751.58 6.10352e-05" stroke="#E9E9E9" stroke-linecap="round" stroke-linejoin="round"/>
<path d="M128.735 6.10352e-05C130.903 29.924 118.028 61.9894 109.086 86.9091C97.7726 118.467 71.1584 105.844 30.8494 134.246C19.8285 142.001 5.83046 142.316 0.516602 127.574" stroke="#E9E9E9" stroke-linecap="round" stroke-linejoin="round"/>
<path d="M313.124 6.10352e-05C318.033 36.3822 317.393 48.904 333.964 71.6372C346.692 89.1069 357.893 101.268 374.318 86.2892C386.732 74.9283 406.156 44.6662 409.144 25.968C410.481 17.436 410.425 8.68984 410.987 0.0451442" stroke="#E9E9E9" stroke-linecap="round" stroke-linejoin="round"/>
<path d="M1109.14 6.10352e-05C1103.9 25.9229 1119.04 53.1418 1139.03 65.303C1153.31 74.0041 1172.79 58.8899 1173.26 35.5481C1173.72 13.0066 1169.89 6.89779 1169.89 6.10352e-05" stroke="#E9E9E9" stroke-linecap="round" stroke-linejoin="round"/>
<path d="M325.493 6.10352e-05C327.504 24.5591 331.313 56.9852 358.174 64.6155C373.902 69.1238 398.483 42.3895 399.741 15.2382C399.966 10.155 400.471 5.09446 400.865 6.10352e-05" stroke="#E9E9E9" stroke-linecap="round" stroke-linejoin="round"/>
<path d="M0.561719 430.015C4.13425 426.633 11.9084 423.252 22.8844 396.653C44.7353 343.759 46.6339 322.739 0 318.839" stroke="#E9E9E9" stroke-linecap="round" stroke-linejoin="round"/>
<path d="M653.841 6.10352e-05C652.11 48.2841 732.335 58.0559 735.964 24.7958C736.874 16.5005 738.211 8.23901 739.334 6.10352e-05" stroke="#E9E9E9" stroke-linecap="round" stroke-linejoin="round"/>
<path d="M1438 330.133C1427.51 328.814 1416.99 327.631 1406.54 326.143C1396.1 324.655 1389.76 331.147 1391.32 341.99C1395.05 367.912 1407.58 388.978 1433.52 393.351C1435.05 393.61 1436.53 394.083 1438.01 394.478" stroke="#E9E9E9" stroke-linecap="round" stroke-linejoin="round"/>
<path d="M1254.17 6.10352e-05C1257.99 12.8375 1264.71 24.2661 1271.66 35.5143C1277.38 44.7676 1285.53 50.4143 1296.9 50.234C1314.14 49.9409 1312.32 35.7623 1318.24 6.10352e-05" stroke="#E9E9E9" stroke-linecap="round" stroke-linejoin="round"/>
<path d="M1438 186.791C1419.36 184.345 1412.16 198.242 1409.22 211.587C1404.6 232.156 1417.64 247.653 1438 254.494" stroke="#E9E9E9" stroke-linecap="round" stroke-linejoin="round"/>
<path d="M340.109 6.10352e-05C343.996 50.2791 387.833 42.6713 385.114 7.88961C384.901 5.27479 385.114 2.62616 385.114 6.10352e-05" stroke="#E9E9E9" stroke-linecap="round" stroke-linejoin="round"/>
<path d="M0 402.367C21.0645 376.523 39.1855 339.848 6.74062 333.525C4.49375 333.086 2.24687 332.759 0 332.398" stroke="#E9E9E9" stroke-linecap="round" stroke-linejoin="round"/>
<path d="M0.561719 200.902C5.90928 207.011 23.1091 224.063 27.7938 239.369C33.7593 258.89 19.1546 261.28 0 261.28" stroke="#E9E9E9" stroke-linecap="round" stroke-linejoin="round"/>
<path d="M77.5733 0.563599C-2.86478 17.56 32.2876 13.8744 0.0561523 23.1052" stroke="#E9E9E9" stroke-linecap="round" stroke-linejoin="round"/>
<path d="M491.324 0.563601C492.672 5.42131 495.537 17.3233 498.199 20.7834C511.995 38.704 535.553 19.6563 544.732 6.10352e-05" stroke="#E9E9E9" stroke-linecap="round" stroke-linejoin="round"/>
<path d="M1438 351.57C1427.82 349.383 1424.63 347.636 1418.9 352.145C1410.84 358.479 1420.8 374.303 1438 370.764" stroke="#E9E9E9" stroke-linecap="round" stroke-linejoin="round"/>
<path d="M680.208 0.563601C682.454 4.3055 686.847 18.7208 701.553 18.5969C708.058 18.5292 714.922 11.6653 715.63 5.07192C715.911 3.36181 716.286 1.66861 716.753 6.10352e-05" stroke="#E9E9E9" stroke-linecap="round" stroke-linejoin="round"/>
<path d="M0.561523 541.753C11.3353 560.688 17.2895 566.808 2.8084 573.401C1.90965 573.807 1.29176 574.855 0.561523 575.655" stroke="#E9E9E9" stroke-linecap="round" stroke-linejoin="round"/>
<path d="M1437.44 46.2779C1434.67 54.5507 1434 62.8234 1437.44 71.0736" stroke="#E9E9E9" stroke-linecap="round" stroke-linejoin="round"/>
<path d="M1272.73 0.563599C1274.32 1.56231 1275.82 2.69337 1277.22 3.94484C1281.34 8.40807 1288.58 9.01669 1292.42 3.3813C1293.27 2.36546 1294.21 1.42292 1295.21 0.563599" stroke="#E9E9E9" stroke-linecap="round" stroke-linejoin="round"/>
<path d="M283.331 229.676C275.624 230.724 267.535 232.404 260.985 236.146C239.348 248.543 215.857 257.819 197.219 275.278C187.108 284.734 175.357 291.136 160.797 292.004C142.373 293.131 141.193 322.66 102.379 359.561C86.774 374.404 101.525 394.681 115.792 397.295C130.577 400.012 148.249 403.923 157.955 404.554C180.21 405.996 216.576 391.085 234.349 372.443C240.415 366.154 249.313 351.649 263.176 333.615C274.714 318.58 273.748 305.337 287.375 279.437C293.217 268.245 324.909 224.041 283.331 229.676Z" stroke="#E9E9E9" stroke-linecap="round" stroke-linejoin="round"/>
<path d="M829.748 395.605C810.83 397.532 812.739 431.908 845.476 436.281C863.058 438.625 871.192 439.854 877.472 454.314C886.886 475.988 888.414 487.394 904.075 504.965C912.602 514.545 920.926 524.125 927.083 535.509C948.855 576.174 991.467 557.081 1024.26 554.838C1035.18 554.094 1039.54 549.35 1076.49 511.243C1089.81 497.504 1090.51 484.813 1084.35 471.795C1073.24 448.408 1056.39 450.11 1014.7 436.687C988.018 428.087 973.211 431.187 952.349 423.038C924.746 412.263 907.827 421.911 889.313 423.77C879.337 424.762 875.528 420.389 851.655 401.781C843.095 395.086 836.185 394.928 829.748 395.605Z" stroke="#E9E9E9" stroke-linecap="round" stroke-linejoin="round"/>
<path d="M1303.09 410.257C1270.41 417.019 1254.87 418.293 1221.08 434.669C1201.98 443.956 1188.23 435.21 1178.23 448.6C1172.03 456.907 1179.35 482.897 1196.8 470.015C1210.92 459.6 1216.03 449.817 1235.08 456.411C1271.81 469.135 1283.63 455.137 1316.52 427.107C1319.89 424.278 1322.85 420.231 1321.39 415.949C1318.92 408.735 1311.05 408.611 1303.09 410.257Z" stroke="#E9E9E9" stroke-linecap="round" stroke-linejoin="round"/>
<path d="M310.316 411.384C274.714 416.794 276.613 421.043 263.682 428.921C237.045 445.117 260.862 466.859 241.213 498.879C222.575 529.31 217.284 564.374 251.886 578.902C312.551 604.329 323.786 607.36 353.602 600.463C367.364 597.273 381.227 596.529 394.596 601.691C410.234 607.732 429.423 596.788 433.332 582.373C436.141 572.026 443.915 538.417 443.668 523.134C443.252 496.016 429.984 509.147 394.585 445.85C378.306 416.715 342.952 406.425 310.316 411.384Z" stroke="#E9E9E9" stroke-linecap="round" stroke-linejoin="round"/>
<path d="M297.946 427.163C279.634 429.823 260.873 435.312 261.468 461.584C262.423 505.901 235.18 511.964 239 543.962C241.381 563.697 257.447 565.23 276.534 571.632C316.225 584.977 321.067 590.026 343.401 582.813C371.138 573.852 382.395 565.907 395.708 567.112C408.156 568.296 417.053 563.619 420.985 551.333C431.265 519.516 431.894 528.228 383.35 455.408C363.544 425.619 343.176 420.603 297.946 427.163Z" stroke="#E9E9E9" stroke-linecap="round" stroke-linejoin="round"/>
<path d="M926.431 429.417C912.636 432.381 896.211 438.501 898.649 464.424C900.626 485.478 912.523 490.561 935.34 531.046C947.136 551.987 965.179 556.259 986.007 549.564C1026.32 536.602 1033.7 536.535 1065.25 504.481C1080.88 488.578 1075.7 469.383 1057.39 459.397C1050.45 455.622 1007.67 441.646 999.466 439.211C997.612 438.682 938.317 426.904 926.431 429.417Z" stroke="#E9E9E9" stroke-linecap="round" stroke-linejoin="round"/>
<path d="M708.316 431.671C677.915 434.624 652.908 440.688 640.909 467.264C638.191 473.328 642.033 478.377 645.403 482.345C671.512 512.28 680.612 537.211 698.205 563.145C705.979 574.641 717.944 563.731 723.931 551.254C739.66 518.501 747.108 506.96 767.24 449.705C773.509 431.964 725.83 430.003 708.316 431.671Z" stroke="#E9E9E9" stroke-linecap="round" stroke-linejoin="round"/>
<path d="M294.565 440.688C280.253 442.367 275.051 448.814 272.759 467.231C267.883 506.408 269.31 488.848 256.391 524.227C251.346 538.056 257.177 547.062 272.119 548.955C313.495 554.207 314.36 570.55 346.827 559.617C361.601 554.647 393.349 540.153 397.888 521.917C401.427 507.693 380.283 481.466 375.52 474.579C364.589 458.71 359.432 452.331 337.851 446.402C324.875 442.942 309.338 439.009 294.565 440.688Z" stroke="#E9E9E9" stroke-linecap="round" stroke-linejoin="round"/>
<path d="M707.192 441.815C688.364 441.24 666.659 447.71 662.918 466.678C659.547 483.686 682.421 516.63 694.284 529.276C719 555.639 745.547 492.297 748.76 471.728C753.826 439.414 719 442.232 707.192 441.815Z" stroke="#E9E9E9" stroke-linecap="round" stroke-linejoin="round"/>
<path d="M937.677 443.506C926.308 444.441 917.579 460.874 921.365 471.221C953.832 560.091 956 549.902 1015.28 526.019C1040.66 515.785 1074.17 484.441 1051.75 469.586C1021.58 449.614 991.085 439.065 937.677 443.506Z" stroke="#E9E9E9" stroke-linecap="round" stroke-linejoin="round"/>
<path d="M703.822 452.026C700.203 452.425 696.632 453.18 693.161 454.28C659.278 464.864 685.533 503.534 695.981 511.762C705.586 519.336 710.181 519.989 720.696 510.634C739.84 493.57 753.692 446.808 703.822 452.026Z" stroke="#E9E9E9" stroke-linecap="round" stroke-linejoin="round"/>
<path d="M970.279 454.281C961.606 455.137 948.204 456.986 947.473 472.911C946.238 499.781 954.641 536.152 980.368 528.138C998.14 522.57 1013.43 512.359 1027.47 500.401C1031.12 497.301 1033.47 492.184 1035.34 487.552C1041.43 472.573 1010.32 457.448 994.399 454.562C986.794 453.153 978.986 453.413 970.279 454.281Z" stroke="#E9E9E9" stroke-linecap="round" stroke-linejoin="round"/>
<path d="M302.44 461.054C279.32 462.858 288.645 505.01 305.811 499.431C330.403 491.542 323.887 471.254 315.843 466.261C312.405 464.131 307.721 460.637 302.44 461.054Z" stroke="#E9E9E9" stroke-linecap="round" stroke-linejoin="round"/>
<path d="M703.822 463.308C691.79 465.078 686.971 473.238 690.97 484.159C707.653 530.313 752.894 456.084 703.822 463.308Z" stroke="#E9E9E9" stroke-linecap="round" stroke-linejoin="round"/>
<path d="M973.672 480.248C961.808 512.021 992.973 515.188 1002.88 487.011C1007.08 474.951 979.064 465.788 973.672 480.248Z" stroke="#E9E9E9" stroke-linecap="round" stroke-linejoin="round"/>
<path d="M607.128 480.237C571.47 487.304 566.032 494.528 558.224 510.668C554.787 517.78 555.427 523.37 561.078 528.701C568.296 535.613 577.55 539.994 587.456 541.189C608.802 543.872 621.463 513.903 622.204 492.624C622.609 481.105 617.89 478.107 607.128 480.237Z" stroke="#E9E9E9" stroke-linecap="round" stroke-linejoin="round"/>
<path d="M419.368 226.295C414.133 226.295 412.2 231.322 411.066 235.312C395.102 291.767 388.327 295.779 443.645 320.891C458.25 327.518 477.034 311.051 468.361 281.533C463.384 264.627 459.901 245.963 443.499 237.126C437.017 233.666 423.884 226.295 419.368 226.295Z" stroke="#E9E9E9" stroke-linecap="round" stroke-linejoin="round"/>
<path d="M1367.22 485.884C1317.12 493.446 1299.96 499.893 1315.61 530.967C1328.07 555.763 1368.41 558.626 1394.78 547.975C1406.15 543.387 1410.24 536.704 1408.26 524.824C1404.55 503.139 1399.06 492.41 1377.39 487.056C1374.03 486.42 1370.64 486.028 1367.22 485.884V485.884Z" stroke="#E9E9E9" stroke-linecap="round" stroke-linejoin="round"/>
<path d="M810.627 507.332C795.394 508.786 793.147 532.793 804.381 544.041C855.958 595.549 846.375 603.641 876.495 644.351C888.998 661.257 910.816 656.862 927.049 672.607C955.764 700.491 947.271 709.395 950.731 726.245C951.653 730.753 952.506 735.892 955.304 739.082C966.415 751.795 980.446 760.992 995.669 767.834C1018.82 778.226 1045.5 759.291 1059.7 740.401C1071.84 724.25 1050.89 711.773 1052.84 658.552C1052.95 655.374 1051.96 652.117 1051.21 648.972C1047.34 632.753 1024.84 657.493 985.94 624.819C954.764 598.637 946.62 596.36 920.219 587.625C881.797 574.833 901.974 557.386 865.17 533.289C840.466 517.036 833.164 505.168 810.627 507.332Z" stroke="#E9E9E9" stroke-linecap="round" stroke-linejoin="round"/>
<path d="M1147.93 510.713C1125.07 513.272 1112.88 535.509 1107.02 557.589C1104.97 565.298 1109.61 570.46 1115.93 573.232C1137.67 582.734 1159.45 580.649 1174.82 559.707C1185.71 544.909 1177.8 507.366 1147.93 510.713Z" stroke="#E9E9E9" stroke-linecap="round" stroke-linejoin="round"/>
<path d="M644.235 516.36C623.946 520.958 610.161 565.692 635.798 566.042C643.381 566.143 650.751 565.85 657.761 562.142C667.434 557.036 669.816 554.376 668.232 544.03C665.502 526.154 652.178 514.557 644.235 516.36Z" stroke="#E9E9E9" stroke-linecap="round" stroke-linejoin="round"/>
<path d="M1166.48 221.212C1157.84 222.102 1152.74 228.594 1150.25 236.472C1143.7 257.312 1141.1 278.31 1148.43 299.679C1160.2 333.931 1193.9 315.639 1219.92 309.947C1235.35 306.566 1252.36 307.377 1272.62 297.741C1283.85 292.409 1273.93 271.029 1241.79 264.717C1185.23 253.593 1185.01 219.307 1166.48 221.212Z" stroke="#E9E9E9" stroke-linecap="round" stroke-linejoin="round"/>
<path d="M1143.43 561.499C1153.55 563.427 1163.47 552.843 1160.86 542.88C1159.95 539.42 1154.03 534.686 1150.17 534.427C1130.81 533.165 1128.77 558.727 1143.43 561.499Z" stroke="#E9E9E9" stroke-linecap="round" stroke-linejoin="round"/>
<path d="M217.587 244.407C192.254 259.566 186.906 267.591 170.336 267.039C120.286 265.36 143.182 298.924 99.0085 340.367C93.7585 345.068 89.0688 350.362 85.0329 356.146C76.742 368.713 79.4157 387.321 89.8862 397.848C109.164 417.38 123.949 413.852 126.465 428.279C128.083 437.611 127.207 428.64 117.635 474.579C116.062 482.142 121.387 501.268 108.277 533.943C101.536 550.657 107.783 562.672 127.611 563.788C142.834 564.644 152.057 555.481 159.506 544.424C196.141 489.998 141.25 444.554 170.841 422.553C200.432 400.553 236.147 397.51 259.874 360.665C268.007 348.053 283.915 333.289 288.33 316.529C299.565 273.824 317 264.864 324.179 244.802C330.526 227.061 315.641 215.148 305.249 214.99C270.265 214.506 244.269 228.448 217.587 244.407Z" stroke="#E9E9E9" stroke-linecap="round" stroke-linejoin="round"/>
<path d="M1017.51 208.239C1012.96 209.366 1008.85 212.218 1005.15 215.103C990.265 226.881 977.379 240.474 969.133 257.932C959.022 279.347 938.227 276.687 905.704 312.776C885.01 335.723 969.549 336.681 1004.03 367.326C1008.26 371.285 1012.99 374.662 1018.1 377.369C1023.65 380.096 1030.02 375.87 1030.29 369.648C1031.42 343.669 1021.96 327.8 1009.55 307.028C997.286 286.492 1015.08 276.709 1033.73 259.589C1041.85 252.139 1045.92 242.378 1048.34 231.942C1050.75 221.505 1039.57 208.758 1028.17 208.273C1024.8 208.115 1021.67 207.168 1017.51 208.239Z" stroke="#E9E9E9" stroke-linecap="round" stroke-linejoin="round"/>
<path d="M698.205 573.92C649.246 577.493 630.956 584.064 635.877 608.859C649.021 675.165 649.459 650.246 669.378 699.228C674.22 711.13 682.41 718.851 694.273 722.83C712.563 728.972 731.2 733.638 750.445 735.227C766.016 736.557 769.431 730.381 767.409 718.321C757.905 661.55 789.192 649.457 770.038 631.536C769.948 631.468 712.012 572.905 698.205 573.92Z" stroke="#E9E9E9" stroke-linecap="round" stroke-linejoin="round"/>
<path d="M300.193 201.465C255.402 207.608 233.731 217.763 204.611 238.659C166.19 266.272 136.677 237.194 120.848 277.622C101.996 325.76 100.525 312.562 79.9658 342.621C51.4867 384.21 83.7968 411.654 89.9083 419.262C99.1092 430.77 104.805 437.295 101.693 451.395C95.2334 480.632 105.288 497.414 93.8965 521.95C84.909 541.212 73.1241 558.017 89.8746 570.009C106.355 581.798 139.912 589.541 167.976 563.021C182.378 549.406 194.938 515.177 189.321 485.253C184.929 461.776 164.291 438.851 204.094 415.374C240.123 394.095 251.942 396.428 281.117 356.642C309.203 318.321 294.026 307.264 324.313 269.665C338.84 251.632 348.636 241.781 338.918 222.891C328.526 202.807 317.112 199.144 300.193 201.465Z" stroke="#E9E9E9" stroke-linecap="round" stroke-linejoin="round"/>
<path d="M1223.25 587.456C1183.25 592.314 1158.35 621.426 1147.33 626.34C1132.38 633.013 1131.23 651.598 1121.93 671.423C1117.61 680.677 1119.75 685.14 1124.44 691.147C1127.38 694.901 1131.53 695.859 1136.73 694.224C1165.22 685.287 1142.63 660.491 1171.1 645.76C1200.2 630.736 1214.18 616.388 1227.28 609.502C1241.29 602.21 1235.78 585.946 1223.25 587.456Z" stroke="#E9E9E9" stroke-linecap="round" stroke-linejoin="round"/>
<path d="M305.811 189.045C227.327 201.116 226.406 211.677 196.253 231.457C172.661 246.943 149.956 238.141 123.14 249.49C106.378 256.591 108.075 274.669 94.2001 301.775C81.3367 326.853 65.3839 333.424 59.969 375.813C57.1267 398.073 62.1035 409.626 71.4393 424.909C81.2693 440.936 77.0564 450.663 78.1799 468.944C80.4268 501.708 89.066 510.567 62.3282 540.592C50.5096 553.858 56.711 577.899 75.2252 583.703C89.5828 588.211 119.039 591.976 124.185 591.807C186.58 589.744 196.703 549.136 204.971 497.707C210.375 464.131 195.68 460.603 198.174 444.092C204.185 404.306 289.543 408.194 308.945 330.64C328.212 253.683 376.104 259.826 344.895 211.744C332.841 193.057 321.078 186.701 305.811 189.045Z" stroke="#E9E9E9" stroke-linecap="round" stroke-linejoin="round"/>
<path d="M390.024 211.643C399.011 250.707 394.787 254.145 389.518 273.632C387.103 282.649 383.44 291.564 390.192 300.13C395.91 307.388 395.809 309.755 434.006 330.561C474.888 352.843 497.885 293.007 486.066 266.949C460.497 210.595 448.633 226.825 440.129 195.774C434.804 176.365 431.456 175.486 419.345 173.751C400.449 171.079 384.429 187.332 390.024 211.643Z" stroke="#E9E9E9" stroke-linecap="round" stroke-linejoin="round"/>
<path d="M894.953 604.385C886.089 607.304 881.471 611.147 887.785 622.936C899.783 645.309 920.713 629.169 936.093 652.838C952.832 678.524 969.2 687.18 969.728 718.952C970.279 751.84 1018.65 776.929 1038.91 733.661C1045.81 718.918 1039.45 692.872 1037.11 682.277C1035.08 673.091 1030.53 665.878 1021.38 661.888C1005.42 654.889 991.782 644.092 977.458 634.388C957.809 621.077 948.383 621.189 931.846 611.97C917.298 603.81 905.603 600.891 894.953 604.385Z" stroke="#E9E9E9" stroke-linecap="round" stroke-linejoin="round"/>
<path d="M141.665 608.904C128.881 610.482 72.3941 607.191 55.2954 631.615C34.8151 660.919 4.25763 668.132 24.7042 695.859C59.1039 742.463 65.3277 744.041 114.658 731.294C166.415 717.916 174.2 715.616 177.009 694.698C190.153 597.262 168.897 605.534 141.665 608.904Z" stroke="#E9E9E9" stroke-linecap="round" stroke-linejoin="round"/>
<path d="M218.688 659.127C229.507 678.445 244.089 681.195 266.883 706.656C278.376 719.493 304.395 709.665 338.952 697.403C355.736 691.452 364.712 676.631 351.871 658.597C343.704 647.124 334.166 646.267 266.49 619.578C222.519 602.232 204.095 633.024 218.688 659.127Z" stroke="#E9E9E9" stroke-linecap="round" stroke-linejoin="round"/>
<path d="M128.173 620.186C57.093 625.934 85.6171 644.475 62.362 675.413C49.3863 692.691 60.0477 712.753 80.337 717.307C88.1224 719.054 95.4023 717.577 102.806 716.089C138.958 708.91 154.709 710.758 161.415 686.785C165.258 673.046 169.886 644.948 163.909 632.077C157.54 618.236 142.261 619.048 128.173 620.186Z" stroke="#E9E9E9" stroke-linecap="round" stroke-linejoin="round"/>
<path d="M1298.02 171.553C1297.05 172.057 1296.21 172.779 1295.57 173.663C1294.93 174.547 1294.5 175.568 1294.31 176.647C1294.18 179.544 1294.66 182.869 1298.57 184.029C1306.11 186.284 1306.71 167.292 1298.02 171.553Z" stroke="#E9E9E9" stroke-linecap="round" stroke-linejoin="round"/>
<path d="M249.594 631.48C234.989 633.599 235.124 649.006 241.797 659.657C247.65 669.011 257.02 674.579 265.917 680.553C279.398 689.569 298.621 706.802 328.751 680.451C347.962 663.646 292.981 643.697 273.793 634.816C266.231 631.331 257.811 630.171 249.594 631.48V631.48Z" stroke="#E9E9E9" stroke-linecap="round" stroke-linejoin="round"/>
<path d="M717.315 164.215C709.259 165.275 706.148 175.193 716.191 181.663C734.84 193.632 738.649 161.398 717.315 164.215Z" stroke="#E9E9E9" stroke-linecap="round" stroke-linejoin="round"/>
<path d="M131.543 634.861C98.6264 639.369 110.333 656.58 119.185 680.587C125.297 697.2 153.686 694.258 149.99 649.028C149.204 639.741 140.429 633.644 131.543 634.861Z" stroke="#E9E9E9" stroke-linecap="round" stroke-linejoin="round"/>
<path d="M672.343 635.988C655.683 639.076 666.412 652.511 677.882 690.189C683.151 707.501 695.857 715.842 712.282 719.392C728.144 722.773 747.951 724.272 750.928 708.2C765.532 628.989 731.234 655.836 690.318 641.702C689.195 641.308 673.489 635.774 672.343 635.988Z" stroke="#E9E9E9" stroke-linecap="round" stroke-linejoin="round"/>
<path d="M900.581 163.088C897.906 163.142 895.278 163.797 892.89 165.007C890.502 166.216 888.416 167.949 886.785 170.076C886.145 170.865 889.964 177.785 896.11 181.088C915.051 191.232 946.664 209.4 960.235 192.494C962.01 190.224 962.975 187.422 962.975 184.537C962.975 181.652 962.01 178.85 960.235 176.579C953.495 168.16 943.766 166.74 934.284 165.5C924.342 164.204 900.693 163.077 900.581 163.088Z" stroke="#E9E9E9" stroke-linecap="round" stroke-linejoin="round"/>
<path d="M156.281 157.442C134.666 161.206 129.521 166.053 124.926 171.654C110.928 188.741 148.35 210.144 163.55 167.585C166.01 160.721 162.19 156.416 156.281 157.442Z" stroke="#E9E9E9" stroke-linecap="round" stroke-linejoin="round"/>
<path d="M879.213 146.16C867.799 147.49 855.34 150.307 853.06 161.454C846.993 190.995 878.842 187.647 941.047 218.935C955.292 226.115 959.719 239.324 950.911 252.59C942.642 264.988 925.218 276.912 883.763 312.088C874.068 320.316 872.866 339.217 886.538 343.015C910.377 349.642 903.468 340.953 938.216 356.022C945.855 359.324 954.023 361.657 961.145 365.816C969.077 370.46 1016.99 407.608 1040.54 404.734C1062.24 402.085 1054.29 381.99 1058.72 345.348C1063.06 309.338 1039.19 305.123 1050.5 274.726C1078.71 198.929 1055.73 202.716 1032.16 186.092C985.895 153.407 1017.85 163.753 938.216 152.821C885.617 145.641 908.321 142.767 879.213 146.16Z" stroke="#E9E9E9" stroke-linecap="round" stroke-linejoin="round"/>
<path d="M718.438 145.033C711.94 145.95 705.682 148.129 700.014 151.446C675.107 167.056 688.027 199.313 739.817 209.276C751.782 211.53 763.016 199.042 760.612 186.734C755.5 160.575 732.571 142.733 718.438 145.033Z" stroke="#E9E9E9" stroke-linecap="round" stroke-linejoin="round"/>
<path d="M690.352 140.017C666.951 148.865 665.738 182.023 684.735 196.371C702.036 209.445 721.224 218.913 741.536 226.216C748.861 228.831 755.849 227.76 762.354 222.948C778.082 211.271 791.192 193.452 780.104 177.323C748.715 131.733 720.741 128.487 690.352 140.017Z" stroke="#E9E9E9" stroke-linecap="round" stroke-linejoin="round"/>
<path d="M659.581 148.47C656.121 158.794 655.952 169.885 657.334 180.558C661.513 212.004 703.395 210.471 731.155 245.05C740.603 256.816 729.29 265.145 703.26 301.404C687.903 322.818 686.881 326.977 693.149 342.542C702.889 366.706 745.299 386.318 762.207 392.336C778.07 397.972 785.507 417.335 748.186 414.765C719.595 412.793 696.306 422.407 634.057 439.561C604.151 447.8 607.094 464.537 563.774 474.5C552.675 477.059 544.159 482.525 538.43 492.601C534.34 499.792 530.498 506.938 528.892 515.199C523.836 541.122 554.012 556.687 578.997 564.791C589.254 568.172 601.466 574.867 605.959 584.03C632.731 638.693 628.293 629.023 632.394 644.407C639.539 671.254 649.818 678.524 658.604 703.737C670.692 738.552 693.666 723.585 769.004 758.524C785.855 766.346 798.797 784.334 835.376 774.303C861.395 767.158 851.408 771.565 872.517 732.601C881.415 716.157 872.787 705.27 857.216 701.855C847.184 699.657 840.522 713.216 816.772 716.563C809.245 717.623 800.651 718.885 793.91 716.349C777.89 710.319 774.441 695.464 780.429 680.733C793.798 648.048 841.286 665.856 796.472 612.985C751.321 559.719 717.011 591.108 765.645 480.327C771.408 467.186 788.945 445.388 811.638 456.197C860.789 479.516 861.182 484.374 871.866 497.245C888.605 517.363 902.502 526.955 918.567 551.345C936.733 578.969 965.291 569.062 1005.78 593.486C1024.54 604.757 1055.47 587.163 1065.73 560.384C1074.92 536.377 1092.74 531.824 1110.2 502.272C1122.73 481.037 1114.38 474.568 1091.64 441.916C1082.72 429.102 1070.47 434.365 1036.6 430.409C1030.46 429.699 1024.63 426.645 1018.62 425.01C1005.54 421.483 992.309 418.473 979.3 414.709C948.967 405.929 936.126 393.903 908.434 395.672C883.392 397.273 864.395 385.078 847.936 368.329C841.443 361.714 839.713 352.55 841.196 342.531C845.611 313.227 848.363 301.471 867.967 285.636C875.348 279.685 883.549 274.624 888.695 266.374C899.087 249.682 895.053 237.532 878.528 227.58C863.631 218.62 851.161 218.451 829.703 215.047C809.212 211.789 824.603 244.035 797.011 252.59C779.654 257.966 771.52 246.075 776.351 238.772C800.067 202.931 820.525 225.562 814.076 196.957C808.459 171.857 788.035 159.403 767.296 143.376C743.187 124.723 722.359 123.088 690.902 121.364C677.871 120.598 665.749 130.11 659.581 148.47Z" stroke="#E9E9E9" stroke-linecap="round" stroke-linejoin="round"/>
<path d="M1261.49 97.6276C1245.25 99.8818 1251.37 118.366 1259.34 130.854C1276.62 158.152 1262.96 173.841 1278.44 203.122C1286.55 218.529 1296.41 227.433 1310.92 217.774C1332.41 203.37 1330.63 173.998 1318.85 155.244C1306.76 136.016 1291.09 146.227 1282.9 121.939C1279.51 112.009 1274.82 95.8018 1261.49 97.6276Z" stroke="#E9E9E9" stroke-linecap="round" stroke-linejoin="round"/>
<path d="M190.007 90.8539C167.909 93.2433 170.201 126.47 141.699 144.48C113.804 162.085 102.379 166.853 102.749 182.801C103.131 199.144 136.644 217.256 163.572 197.453C178.312 186.611 169.864 185.596 200.724 177.774C218.138 173.356 231.473 160.18 225.361 146.216C217.497 128.374 211.026 124.802 204.016 103.86C201.545 96.4667 198.062 89.986 190.007 90.8539Z" stroke="#E9E9E9" stroke-linecap="round" stroke-linejoin="round"/>
<path d="M1057.99 80.6989C1037.3 84.9818 1058.45 104.232 1066.41 102.113C1072.75 100.445 1074.52 92.274 1069.06 86.4583C1066.6 83.8772 1058.56 80.5749 1057.99 80.6989Z" stroke="#E9E9E9" stroke-linecap="round" stroke-linejoin="round"/>
<path d="M1255.86 79.5718C1205.07 87.5854 1267.09 144.503 1259.53 208.205C1255.39 243.291 1239.13 249.907 1218.79 241.432C1201.26 234.128 1196.99 213.931 1179.38 206.041C1150.93 193.272 1135.72 225.934 1128.45 257.38C1118.79 299.082 1145.57 344.266 1182.18 336.174C1206.63 330.775 1210.05 325.309 1241.25 323.449C1274.38 321.466 1293.81 325.974 1322.21 306.442C1342.28 292.624 1342.55 295.058 1340.18 276.518C1335.12 236.506 1333.18 232.494 1338.61 212.218C1345.53 186.419 1333.54 147.67 1321.02 134.337C1308.28 120.812 1305.7 124.193 1296.3 107.771C1287.26 91.8457 1276.07 76.3822 1255.86 79.5718Z" stroke="#E9E9E9" stroke-linecap="round" stroke-linejoin="round"/>
<path d="M218.115 62.6431C199.623 64.3112 173.526 59.5549 155.326 102.778C132.689 156.529 101.963 142.226 86.583 176.039C81.7972 186.554 83.4823 197.633 91.1442 203.584C94.8628 206.481 139.856 228.752 173.571 205.737C200.747 187.197 222.463 190.183 241.224 171.575C254.11 158.794 247.965 145.585 244.594 116.213C241.909 92.9165 280.926 56.9514 218.115 62.6431Z" stroke="#E9E9E9" stroke-linecap="round" stroke-linejoin="round"/>
<path d="M60.6653 58.1235C54.8459 60.1297 54.9582 62.1472 54.5201 64.345C53.9921 66.9147 60.2721 73.5532 63.5076 73.9251C66.7431 74.2971 71.0009 70.5439 71.3716 67.1627C71.8997 63.0263 66.114 56.2638 60.6653 58.1235Z" stroke="#E9E9E9" stroke-linecap="round" stroke-linejoin="round"/>
<path d="M58.4186 34.421C45.7238 35.7284 43.1961 35.1086 27.569 47.4839C16.9413 55.9032 30.5911 77.1035 40.2976 86.4808C53.9811 99.6564 84.6734 97.0416 91.6499 74.5C99.8398 48.07 89.3244 31.2539 58.4186 34.421Z" stroke="#E9E9E9" stroke-linecap="round" stroke-linejoin="round"/>
<path d="M928.689 28.7856C876.056 33.4856 895.11 83.0996 920.241 75.5932C936.486 70.7468 961.584 55.4523 955.776 39.4591C951.855 28.6617 939.969 27.7713 928.689 28.7856Z" stroke="#E9E9E9" stroke-linecap="round" stroke-linejoin="round"/>
<path d="M1140.05 12.984C1113.43 18.0446 1146.13 52.1613 1153.53 30.4762C1156.57 21.6512 1152.88 10.5382 1140.05 12.984Z" stroke="#E9E9E9" stroke-linecap="round" stroke-linejoin="round"/>
<path d="M939.924 11.8456C924.69 12.8713 900.783 14.9338 884.875 35.0071C867.754 56.5907 889.762 91.7668 918.578 88.3743C930.813 86.9316 950.866 74.8493 961.269 68.2109C993.051 48.0249 981.008 9.11809 939.924 11.8456Z" stroke="#E9E9E9" stroke-linecap="round" stroke-linejoin="round"/>
<path d="M848.858 231.942C824.76 234.793 832.647 266.881 798.831 268.132C764.218 269.361 754.534 270.984 744.3 279.91C731.149 291.204 720.948 305.551 714.585 321.702C711.091 330.595 713.102 338.947 719.595 345.901C770.734 400.744 803.572 356.563 799.899 414.213C799.225 424.729 803.662 432.246 812.256 437.983C821.491 444.159 830.905 449.829 841.544 453.131C873.787 463.128 873.686 490.832 898.345 512.934C923.522 535.475 923.117 562.875 962.965 568.296C1016.96 575.644 1035.69 583.342 1049 562.66C1063.76 539.702 1066.47 535.689 1075.96 527.146C1093.58 511.367 1107.98 492.286 1097.12 471.299C1085.14 448.138 1074.65 442.751 1057.36 440.868C1029.39 437.712 1022.68 430.477 982.008 422.835C949.507 416.749 940.867 405.794 917.388 406.943C897.728 407.901 890.133 411.361 871.877 400.113C811.807 363.1 819.076 377.211 837.523 310.409C838.365 307.388 838.5 289.276 859.452 275.954C865.799 271.93 872.428 267.941 875.731 260.739C882.28 246.515 872.102 229.18 848.858 231.942Z" stroke="#E9E9E9" stroke-linecap="round" stroke-linejoin="round"/>
<path d="M346.85 365.174C329.133 370.753 356.478 387.219 373.813 382.08C388.709 377.572 383.092 365.253 371.026 365.174C362.971 365.061 354.534 362.694 346.85 365.174Z" stroke="#E9E9E9" stroke-linecap="round" stroke-linejoin="round"/>
<path d="M429.49 270.307C420.165 271.604 418.75 285.512 428.883 290.708C441.982 297.425 440.747 268.752 429.49 270.307Z" stroke="#E9E9E9" stroke-linecap="round" stroke-linejoin="round"/>
<path d="M1188.41 270.307C1181.04 271.942 1180.27 275.548 1181.66 281.037C1183.34 287.676 1187.98 291.789 1194.02 291.068C1220.54 287.89 1204.03 266.847 1188.41 270.307Z" stroke="#E9E9E9" stroke-linecap="round" stroke-linejoin="round"/>
<path d="M228.237 274.827C196.298 279.73 202.151 309.011 168.133 324.035C151.574 331.35 142.609 345.134 138.306 362.3C136.666 368.837 137.655 372.083 143.395 375.193C159.944 384.142 174.852 390.533 189.973 385.878C205.094 381.223 217.351 372.41 225.979 358.907C246.898 326.143 261.57 313.689 247.785 282.784C243.887 274.049 235.922 273.644 228.237 274.827Z" stroke="#E9E9E9" stroke-linecap="round" stroke-linejoin="round"/>
<path d="M782.519 281.601C772.341 283.088 740.525 287.845 733.818 327.338C731.358 341.854 749.962 354.534 763.499 360.384C790.304 371.936 822.356 344.356 824.603 312.066C826.85 280.643 813.762 277.036 782.519 281.601Z" stroke="#E9E9E9" stroke-linecap="round" stroke-linejoin="round"/>
<path d="M598.141 282.728C585.659 285.117 574.346 291.744 562.764 296.94C549.586 302.88 542.104 322.728 545.732 335.261C552.046 357.025 579.806 357.803 595.793 342.463C601.526 336.901 606.786 330.869 611.521 324.43C617.778 315.999 620.014 278.524 598.141 282.728Z" stroke="#E9E9E9" stroke-linecap="round" stroke-linejoin="round"/>
<path d="M784.777 294.01C758.489 296.94 749.153 318.806 753.838 332.387C762.522 357.645 799.494 346.757 808.392 321.668C814.649 304.007 804.022 291.913 784.777 294.01Z" stroke="#E9E9E9" stroke-linecap="round" stroke-linejoin="round"/>
<path d="M576.773 312.066C574.301 312.821 566.437 317.904 568.527 320.97C576.02 331.959 590.984 307.749 576.773 312.066Z" stroke="#E9E9E9" stroke-linecap="round" stroke-linejoin="round"/>
</g>
<defs>
<clipPath id="clip0_1367_68254">
<rect width="1440" height="650" fill="white"/>
</clipPath>
</defs>
</svg>
