<svg width="138" height="56" viewBox="0 0 138 56" fill="none" xmlns="http://www.w3.org/2000/svg">
<path d="M71.9258 16.4H75.5378C76.3778 16.4 77.1992 16.4933 78.0018 16.68C78.8045 16.8667 79.5138 17.1653 80.1298 17.576C80.7645 17.9867 81.2685 18.528 81.6418 19.2C82.0152 19.872 82.2018 20.7027 82.2018 21.692C82.2018 22.476 82.0338 23.26 81.6978 24.044C81.3805 24.8093 80.8858 25.472 80.2138 26.032C79.5418 26.5733 78.6738 26.9 77.6098 27.012C78.2072 27.1987 78.7485 27.5347 79.2338 28.02C79.7378 28.5053 80.1485 28.9907 80.4658 29.476C80.4845 29.5133 80.5872 29.6813 80.7738 29.98C80.9792 30.2787 81.2218 30.652 81.5018 31.1C81.8005 31.5293 82.1085 31.968 82.4258 32.416C82.7432 32.864 83.0325 33.256 83.2938 33.592C83.7045 34.096 84.0778 34.5067 84.4138 34.824C84.7498 35.1227 85.1045 35.3467 85.4778 35.496C85.8512 35.6267 86.2805 35.7013 86.7658 35.72V36H84.0218C83.0138 36 82.0992 35.916 81.2778 35.748C80.4565 35.5613 79.7285 35.2533 79.0938 34.824C78.4592 34.3947 77.9085 33.816 77.4418 33.088C77.2925 32.864 77.1245 32.584 76.9378 32.248C76.7698 31.8933 76.5925 31.52 76.4058 31.128C76.2192 30.736 76.0325 30.3627 75.8458 30.008C75.6778 29.6347 75.5285 29.2987 75.3978 29C75.2672 28.7013 75.1738 28.468 75.1178 28.3C74.8752 27.7027 74.5858 27.2547 74.2498 26.956C73.9325 26.6573 73.5872 26.48 73.2138 26.424V26.144C73.2698 26.144 73.3818 26.144 73.5498 26.144C73.7178 26.144 73.8952 26.144 74.0818 26.144C74.5858 26.144 75.0712 26.0413 75.5378 25.836C76.0232 25.6307 76.4525 25.2947 76.8258 24.828C77.1992 24.3613 77.4605 23.7173 77.6098 22.896C77.6472 22.728 77.6752 22.532 77.6938 22.308C77.7312 22.084 77.7405 21.832 77.7218 21.552C77.6658 20.208 77.3298 19.228 76.7138 18.612C76.0978 17.9773 75.3325 17.6507 74.4178 17.632C74.1565 17.6133 73.8672 17.6133 73.5498 17.632C73.2512 17.632 72.9712 17.632 72.7098 17.632C72.4672 17.632 72.2992 17.632 72.2058 17.632C72.2058 17.6133 72.1778 17.5107 72.1218 17.324C72.0845 17.1187 72.0378 16.9133 71.9818 16.708C71.9445 16.5027 71.9258 16.4 71.9258 16.4ZM72.2898 16.4V36H68.0898V16.4H72.2898ZM68.1738 33.956V36H65.9338V35.72C65.9525 35.72 66.0085 35.72 66.1018 35.72C66.2138 35.72 66.2792 35.72 66.2978 35.72C66.7832 35.72 67.1938 35.552 67.5298 35.216C67.8845 34.8613 68.0712 34.4413 68.0898 33.956H68.1738ZM68.1738 18.444H68.0898C68.0712 17.9587 67.8845 17.548 67.5298 17.212C67.1938 16.8573 66.7832 16.68 66.2978 16.68C66.2792 16.68 66.2138 16.68 66.1018 16.68C66.0085 16.68 65.9525 16.68 65.9338 16.68V16.4H68.1738V18.444ZM72.2058 33.956H72.2898C72.2898 34.4413 72.4672 34.8613 72.8218 35.216C73.1765 35.552 73.5965 35.72 74.0818 35.72C74.1192 35.72 74.1845 35.72 74.2778 35.72C74.3712 35.72 74.4178 35.72 74.4178 35.72V36H72.2058V33.956ZM92.7957 16.4V36H88.5957V16.4H92.7957ZM100.188 34.796L100.86 36H92.7117V34.796H100.188ZM99.1517 25.752V26.928H92.7117V25.752H99.1517ZM100.524 16.4V17.604H92.7117V16.4H100.524ZM102.232 30.26L100.944 36H95.4557L96.4637 34.796C97.397 34.796 98.2183 34.6187 98.9277 34.264C99.637 33.8907 100.244 33.368 100.748 32.696C101.252 32.0053 101.653 31.1933 101.952 30.26H102.232ZM99.1517 26.872V29.56H98.8717V29.336C98.8717 28.6453 98.6477 28.076 98.1997 27.628C97.7517 27.18 97.1823 26.9467 96.4917 26.928V26.872H99.1517ZM99.1517 23.12V25.808H96.4917V25.752C97.1823 25.7333 97.7517 25.5 98.1997 25.052C98.6477 24.5853 98.8717 24.0067 98.8717 23.316V23.12H99.1517ZM100.524 17.52V20.796H100.244V20.46C100.244 19.6013 99.9823 18.9107 99.4597 18.388C98.9557 17.8653 98.265 17.5947 97.3877 17.576V17.52H100.524ZM100.524 15.896V16.708L97.1077 16.4C97.5183 16.4 97.9477 16.372 98.3957 16.316C98.8623 16.26 99.2917 16.1947 99.6837 16.12C100.076 16.0453 100.356 15.9707 100.524 15.896ZM88.6797 33.956V36H86.4397V35.72C86.4397 35.72 86.4957 35.72 86.6077 35.72C86.7383 35.72 86.8037 35.72 86.8037 35.72C87.289 35.72 87.6997 35.552 88.0357 35.216C88.3903 34.8613 88.577 34.4413 88.5957 33.956H88.6797ZM88.6797 18.444H88.5957C88.577 17.9587 88.3903 17.548 88.0357 17.212C87.6997 16.8573 87.289 16.68 86.8037 16.68C86.8037 16.68 86.7383 16.68 86.6077 16.68C86.4957 16.68 86.4397 16.68 86.4397 16.68V16.4H88.6797V18.444ZM113.259 36.56L103.991 16.568H109.003L114.995 31.156L113.259 36.56ZM113.259 36.56L113.175 33.144L120.287 16.484H122.303L114.883 32.892C114.846 33.004 114.752 33.2187 114.603 33.536C114.472 33.8347 114.323 34.18 114.155 34.572C113.987 34.964 113.838 35.3467 113.707 35.72C113.595 36.0747 113.53 36.3547 113.511 36.56H113.259ZM119.447 18.444C119.69 17.884 119.662 17.4547 119.363 17.156C119.064 16.8387 118.738 16.68 118.383 16.68H118.131V16.4H124.123V16.68C124.123 16.68 124.076 16.68 123.983 16.68C123.908 16.68 123.871 16.68 123.871 16.68C123.46 16.68 123.022 16.82 122.555 17.1C122.107 17.3613 121.734 17.8093 121.435 18.444H119.447ZM109.787 18.444H104.859C104.56 17.8093 104.178 17.3613 103.711 17.1C103.263 16.82 102.824 16.68 102.395 16.68C102.395 16.68 102.358 16.68 102.283 16.68C102.208 16.68 102.171 16.68 102.171 16.68V16.4H111.075V16.68H110.823C110.468 16.68 110.151 16.8387 109.871 17.156C109.61 17.4547 109.582 17.884 109.787 18.444Z" fill="white"/>
<path fill-rule="evenodd" clip-rule="evenodd" d="M25 53C38.8071 53 50 41.8071 50 28C50 14.1929 38.8071 3 25 3C11.1929 3 0 14.1929 0 28C0 41.8071 11.1929 53 25 53ZM12.0621 24.5303L21.5359 40.9394C23.0755 43.6061 26.9245 43.6061 28.4641 40.9394L37.9379 24.5303C39.4775 21.8636 37.553 18.5303 34.4738 18.5303H15.5262C12.447 18.5303 10.5225 21.8636 12.0621 24.5303Z" fill="white"/>
</svg>
