<svg width="138" height="56" viewBox="0 0 138 56" fill="none" xmlns="http://www.w3.org/2000/svg">
<path d="M65.6189 13.8H70.2629C71.3429 13.8 72.3989 13.92 73.4309 14.16C74.4629 14.4 75.3749 14.784 76.1669 15.312C76.9829 15.84 77.6309 16.536 78.1109 17.4C78.5909 18.264 78.8309 19.332 78.8309 20.604C78.8309 21.612 78.6149 22.62 78.1829 23.628C77.7749 24.612 77.1389 25.464 76.2749 26.184C75.4109 26.88 74.2949 27.3 72.9269 27.444C73.6949 27.684 74.3909 28.116 75.0149 28.74C75.6629 29.364 76.1909 29.988 76.5989 30.612C76.6229 30.66 76.7549 30.876 76.9949 31.26C77.2589 31.644 77.5709 32.124 77.9309 32.7C78.3149 33.252 78.7109 33.816 79.1189 34.392C79.5269 34.968 79.8989 35.472 80.2349 35.904C80.7629 36.552 81.2429 37.08 81.6749 37.488C82.1069 37.872 82.5629 38.16 83.0429 38.352C83.5229 38.52 84.0749 38.616 84.6989 38.64V39H81.1709C79.8749 39 78.6989 38.892 77.6429 38.676C76.5869 38.436 75.6509 38.04 74.8349 37.488C74.0189 36.936 73.3109 36.192 72.7109 35.256C72.5189 34.968 72.3029 34.608 72.0629 34.176C71.8469 33.72 71.6189 33.24 71.3789 32.736C71.1389 32.232 70.8989 31.752 70.6589 31.296C70.4429 30.816 70.2509 30.384 70.0829 30C69.9149 29.616 69.7949 29.316 69.7229 29.1C69.4109 28.332 69.0389 27.756 68.6069 27.372C68.1989 26.988 67.7549 26.76 67.2749 26.688V26.328C67.3469 26.328 67.4909 26.328 67.7069 26.328C67.9229 26.328 68.1509 26.328 68.3909 26.328C69.0389 26.328 69.6629 26.196 70.2629 25.932C70.8869 25.668 71.4389 25.236 71.9189 24.636C72.3989 24.036 72.7349 23.208 72.9269 22.152C72.9749 21.936 73.0109 21.684 73.0349 21.396C73.0829 21.108 73.0949 20.784 73.0709 20.424C72.9989 18.696 72.5669 17.436 71.7749 16.644C70.9829 15.828 69.9989 15.408 68.8229 15.384C68.4869 15.36 68.1149 15.36 67.7069 15.384C67.3229 15.384 66.9629 15.384 66.6269 15.384C66.3149 15.384 66.0989 15.384 65.9789 15.384C65.9789 15.36 65.9429 15.228 65.8709 14.988C65.8229 14.724 65.7629 14.46 65.6909 14.196C65.6429 13.932 65.6189 13.8 65.6189 13.8ZM66.0869 13.8V39H60.6869V13.8H66.0869ZM60.7949 36.372V39H57.9149V38.64C57.9389 38.64 58.0109 38.64 58.1309 38.64C58.2749 38.64 58.3589 38.64 58.3829 38.64C59.0069 38.64 59.5349 38.424 59.9669 37.992C60.4229 37.536 60.6629 36.996 60.6869 36.372H60.7949ZM60.7949 16.428H60.6869C60.6629 15.804 60.4229 15.276 59.9669 14.844C59.5349 14.388 59.0069 14.16 58.3829 14.16C58.3589 14.16 58.2749 14.16 58.1309 14.16C58.0109 14.16 57.9389 14.16 57.9149 14.16V13.8H60.7949V16.428ZM65.9789 36.372H66.0869C66.0869 36.996 66.3149 37.536 66.7709 37.992C67.2269 38.424 67.7669 38.64 68.3909 38.64C68.4389 38.64 68.5229 38.64 68.6429 38.64C68.7629 38.64 68.8229 38.64 68.8229 38.64V39H65.9789V36.372ZM92.4516 13.8V39H87.0516V13.8H92.4516ZM101.956 37.452L102.82 39H92.3436V37.452H101.956ZM100.624 25.824V27.336H92.3436V25.824H100.624ZM102.388 13.8V15.348H92.3436V13.8H102.388ZM104.584 31.62L102.928 39H95.8716L97.1676 37.452C98.3676 37.452 99.4236 37.224 100.336 36.768C101.248 36.288 102.028 35.616 102.676 34.752C103.324 33.864 103.84 32.82 104.224 31.62H104.584ZM100.624 27.264V30.72H100.264V30.432C100.264 29.544 99.9756 28.812 99.3996 28.236C98.8236 27.66 98.0916 27.36 97.2036 27.336V27.264H100.624ZM100.624 22.44V25.896H97.2036V25.824C98.0916 25.8 98.8236 25.5 99.3996 24.924C99.9756 24.324 100.264 23.58 100.264 22.692V22.44H100.624ZM102.388 15.24V19.452H102.028V19.02C102.028 17.916 101.692 17.028 101.02 16.356C100.372 15.684 99.4836 15.336 98.3556 15.312V15.24H102.388ZM102.388 13.152V14.196L97.9956 13.8C98.5236 13.8 99.0756 13.764 99.6516 13.692C100.252 13.62 100.804 13.536 101.308 13.44C101.812 13.344 102.172 13.248 102.388 13.152ZM87.1596 36.372V39H84.2796V38.64C84.2796 38.64 84.3516 38.64 84.4956 38.64C84.6636 38.64 84.7476 38.64 84.7476 38.64C85.3716 38.64 85.8996 38.424 86.3316 37.992C86.7876 37.536 87.0276 36.996 87.0516 36.372H87.1596ZM87.1596 16.428H87.0516C87.0276 15.804 86.7876 15.276 86.3316 14.844C85.8996 14.388 85.3716 14.16 84.7476 14.16C84.7476 14.16 84.6636 14.16 84.4956 14.16C84.3516 14.16 84.2796 14.16 84.2796 14.16V13.8H87.1596V16.428ZM118.762 39.72L106.846 14.016H113.29L120.994 32.772L118.762 39.72ZM118.762 39.72L118.654 35.328L127.798 13.908H130.39L120.85 35.004C120.802 35.148 120.682 35.424 120.49 35.832C120.322 36.216 120.13 36.66 119.914 37.164C119.698 37.668 119.506 38.16 119.338 38.64C119.194 39.096 119.11 39.456 119.086 39.72H118.762ZM126.718 16.428C127.03 15.708 126.994 15.156 126.61 14.772C126.226 14.364 125.806 14.16 125.35 14.16H125.026V13.8H132.73V14.16C132.73 14.16 132.67 14.16 132.55 14.16C132.454 14.16 132.406 14.16 132.406 14.16C131.878 14.16 131.314 14.34 130.714 14.7C130.138 15.036 129.658 15.612 129.274 16.428H126.718ZM114.298 16.428H107.962C107.578 15.612 107.086 15.036 106.486 14.7C105.91 14.34 105.346 14.16 104.794 14.16C104.794 14.16 104.746 14.16 104.65 14.16C104.554 14.16 104.506 14.16 104.506 14.16V13.8H115.954V14.16H115.63C115.174 14.16 114.766 14.364 114.406 14.772C114.07 15.156 114.034 15.708 114.298 16.428Z" fill="white"/>
<path fill-rule="evenodd" clip-rule="evenodd" d="M25 53C38.8071 53 50 41.8071 50 28C50 14.1929 38.8071 3 25 3C11.1929 3 0 14.1929 0 28C0 41.8071 11.1929 53 25 53ZM12.0621 24.5303L21.5359 40.9394C23.0755 43.6061 26.9245 43.6061 28.4641 40.9394L37.9379 24.5303C39.4775 21.8636 37.553 18.5303 34.4738 18.5303H15.5262C12.447 18.5303 10.5225 21.8636 12.0621 24.5303Z" fill="white"/>
</svg>
